<svg width="171" height="49" viewBox="0 0 171 49" fill="none" xmlns="http://www.w3.org/2000/svg">
<mask id="path-2-inside-1_1487_16908" fill="white">
<path fill-rule="evenodd" clip-rule="evenodd" d="M18.2143 0H161.286L171 9.71406V10.1434L152.786 49L0 49V49H9.71428L0 39.2857V38.8571L18.2143 0Z"/>
</mask>
<path fill-rule="evenodd" clip-rule="evenodd" d="M18.2143 0H161.286L171 9.71406V10.1434L152.786 49L0 49V49H9.71428L0 39.2857V38.8571L18.2143 0Z" fill="url(#paint0_linear_1487_16908)"/>
<path fill-rule="evenodd" clip-rule="evenodd" d="M18.2143 0H161.286L171 9.71406V10.1434L152.786 49L0 49V49H9.71428L0 39.2857V38.8571L18.2143 0Z" fill="#0B0606"/>
<path d="M161.286 0L162.145 -0.858629L161.789 -1.21429H161.286V0ZM18.2143 0V-1.21429H17.4424L17.1148 -0.515384L18.2143 0ZM171 9.71406H172.214V9.21108L171.859 8.85543L171 9.71406ZM171 10.1434L172.099 10.6588L172.214 10.4139V10.1434H171ZM152.786 49V50.2143H153.558L153.885 49.5154L152.786 49ZM0 49H-1.21429V50.2143H-2.12225e-07L0 49ZM0 49V47.7857H-1.21429V49H0ZM9.71428 49V50.2142H12.6458L10.5729 48.1413L9.71428 49ZM0 39.2857H-1.21429V39.7886L-0.85863 40.1443L0 39.2857ZM0 38.8571L-1.09949 38.3418L-1.21429 38.5867V38.8571H0ZM161.286 -1.21429H18.2143V1.21429H161.286V-1.21429ZM171.859 8.85543L162.145 -0.858629L160.427 0.858629L170.141 10.5727L171.859 8.85543ZM172.214 10.1434V9.71406H169.786V10.1434H172.214ZM169.901 9.62799L151.686 48.4846L153.885 49.5154L172.099 10.6588L169.901 9.62799ZM-2.12225e-07 50.2143L152.786 50.2143V47.7857L2.12225e-07 47.7857L-2.12225e-07 50.2143ZM-1.21429 49V49H1.21429V49H-1.21429ZM9.71428 47.7857H0V50.2142H9.71428V47.7857ZM-0.85863 40.1443L8.85566 49.8586L10.5729 48.1413L0.85863 38.427L-0.85863 40.1443ZM-1.21429 38.8571V39.2857H1.21429V38.8571H-1.21429ZM17.1148 -0.515384L-1.09949 38.3418L1.09949 39.3725L19.3138 0.515384L17.1148 -0.515384Z" fill="#816E5C" mask="url(#path-2-inside-1_1487_16908)"/>
<mask id="mask0_1487_16908" style="mask-type:alpha" maskUnits="userSpaceOnUse" x="0" y="0" width="171" height="49">
<mask id="path-4-inside-2_1487_16908" fill="white">
<path fill-rule="evenodd" clip-rule="evenodd" d="M18.2143 0H161.286L171 9.71406V10.1434L152.786 49L0 49V49H9.71428L0 39.2857V38.8571L18.2143 0Z"/>
</mask>
<path fill-rule="evenodd" clip-rule="evenodd" d="M18.2143 0H161.286L171 9.71406V10.1434L152.786 49L0 49V49H9.71428L0 39.2857V38.8571L18.2143 0Z" fill="url(#paint1_linear_1487_16908)"/>
<path fill-rule="evenodd" clip-rule="evenodd" d="M18.2143 0H161.286L171 9.71406V10.1434L152.786 49L0 49V49H9.71428L0 39.2857V38.8571L18.2143 0Z" fill="black" fill-opacity="0.2"/>
<path d="M161.286 0L162.145 -0.858629L161.789 -1.21429H161.286V0ZM18.2143 0V-1.21429H17.4424L17.1148 -0.515384L18.2143 0ZM171 9.71406H172.214V9.21108L171.859 8.85543L171 9.71406ZM171 10.1434L172.099 10.6588L172.214 10.4139V10.1434H171ZM152.786 49V50.2143H153.558L153.885 49.5154L152.786 49ZM0 49H-1.21429V50.2143H-2.12225e-07L0 49ZM0 49V47.7857H-1.21429V49H0ZM9.71428 49V50.2142H12.6458L10.5729 48.1413L9.71428 49ZM0 39.2857H-1.21429V39.7886L-0.85863 40.1443L0 39.2857ZM0 38.8571L-1.09949 38.3418L-1.21429 38.5867V38.8571H0ZM161.286 -1.21429H18.2143V1.21429H161.286V-1.21429ZM171.859 8.85543L162.145 -0.858629L160.427 0.858629L170.141 10.5727L171.859 8.85543ZM172.214 10.1434V9.71406H169.786V10.1434H172.214ZM169.901 9.62799L151.686 48.4846L153.885 49.5154L172.099 10.6588L169.901 9.62799ZM-2.12225e-07 50.2143L152.786 50.2143V47.7857L2.12225e-07 47.7857L-2.12225e-07 50.2143ZM-1.21429 49V49H1.21429V49H-1.21429ZM9.71428 47.7857H0V50.2142H9.71428V47.7857ZM-0.85863 40.1443L8.85566 49.8586L10.5729 48.1413L0.85863 38.427L-0.85863 40.1443ZM-1.21429 38.8571V39.2857H1.21429V38.8571H-1.21429ZM17.1148 -0.515384L-1.09949 38.3418L1.09949 39.3725L19.3138 0.515384L17.1148 -0.515384Z" fill="white" fill-opacity="0.9" mask="url(#path-4-inside-2_1487_16908)"/>
</mask>
<g mask="url(#mask0_1487_16908)">
<path fill-rule="evenodd" clip-rule="evenodd" d="M17.5838 -24.5711L89.6433 47.4884L161.703 -24.5711L175.441 -10.833L96.5123 68.0955L89.6433 74.9646L82.7743 68.0955L3.8457 -10.833L17.5838 -24.5711ZM58.3665 -20.4254L89.6433 10.8514L120.92 -20.4254L131.224 -10.1219L94.7951 26.3067L89.6433 31.4585L84.4915 26.3067L48.063 -10.1219L58.3665 -20.4254Z" fill="white" fill-opacity="0.06"/>
</g>
<defs>
<linearGradient id="paint0_linear_1487_16908" x1="85.5" y1="0" x2="85.5" y2="49" gradientUnits="userSpaceOnUse">
<stop stop-color="#333333" stop-opacity="0.8"/>
<stop offset="1" stop-color="#111111" stop-opacity="0.9"/>
</linearGradient>
<linearGradient id="paint1_linear_1487_16908" x1="85.5" y1="0" x2="85.5" y2="49" gradientUnits="userSpaceOnUse">
<stop stop-color="#383838" stop-opacity="0.8"/>
<stop offset="1" stop-color="#1F1F1F" stop-opacity="0.9"/>
</linearGradient>
</defs>
</svg>
